HIERARCHY
ROOT hip
{
	OFFSET 0.000000 0.000000 0.000000 
	CHANNELS 6 Xposition Yposition Zposition Xrotation Zrotation Yrotation
	JOINT abdomen
	{
		OFFSET 0.000000 3.402643 0.000000 
		CHANNELS 3 Xrotation Zrotation Yrotation
		JOINT chest
		{
			OFFSET 0.000000 8.438565 -0.680529 
			CHANNELS 3 Xrotation Zrotation Yrotation
			JOINT neck
			{
				OFFSET 0.000000 10.207942 -0.272212 
				CHANNELS 3 Xrotation Zrotation Yrotation
				JOINT head
				{
					OFFSET 0.000000 3.130431 0.000000 
					CHANNELS 3 Xrotation Zrotation Yrotation
					End Site
					{
						OFFSET 0.000000 3.130435 0.000000 
					}
				}
			}
			JOINT lCollar
			{
				OFFSET 3.470700 6.669187 -0.816635 
				CHANNELS 3 Yrotation Zrotation Xrotation
				JOINT lShldr
				{
					OFFSET 3.198488 0.000000 0.000000 
					CHANNELS 3 Zrotation Yrotation Xrotation
					JOINT lForeArm
					{
						OFFSET 10.139888 0.000000 0.000000 
						CHANNELS 3 Yrotation Zrotation Xrotation
						JOINT lHand
						{
							OFFSET 8.370511 0.000000 0.000000 
							CHANNELS 3 Zrotation Yrotation Xrotation
							End Site
							{
								OFFSET 4.083176 0.000000 0.000000 
							}
						}
					}
				}
			}
			JOINT rCollar
			{
				OFFSET -3.470700 6.669187 -0.816635 
				CHANNELS 3 Yrotation Zrotation Xrotation
				JOINT rShldr
				{
					OFFSET -3.198488 0.000000 0.000000 
					CHANNELS 3 Zrotation Yrotation Xrotation
					JOINT rForeArm
					{
						OFFSET -10.139888 0.000000 0.000000 
						CHANNELS 3 Yrotation Zrotation Xrotation
						JOINT rHand
						{
							OFFSET -8.370511 0.000000 0.000000 
							CHANNELS 3 Zrotation Yrotation Xrotation
							End Site
							{
								OFFSET -4.083176 0.000000 0.000000 
							}
						}
					}
				}
			}
		}
	}
	JOINT lThigh
	{
		OFFSET 5.308129 -1.633274 1.361059 
		CHANNELS 3 Xrotation Zrotation Yrotation
		JOINT lShin
		{
			OFFSET -2.041588 -20.007561 0.000000 
			CHANNELS 3 Xrotation Zrotation Yrotation
			JOINT lFoot
			{
				OFFSET 0.000000 -19.190928 -1.224953 
				CHANNELS 3 Xrotation Yrotation Zrotation
				End Site
				{
					OFFSET 0.000000 -2.449906 4.627600 
				}
			}
		}
	}
	JOINT rThigh
	{
		OFFSET -5.308129 -1.633274 1.361059 
		CHANNELS 3 Xrotation Zrotation Yrotation
		JOINT rShin
		{
			OFFSET 2.041588 -20.007561 0.000000 
			CHANNELS 3 Xrotation Zrotation Yrotation
			JOINT rFoot
			{
				OFFSET 0.000000 -19.190928 -1.224953 
				CHANNELS 3 Xrotation Yrotation Zrotation
				End Site
				{
					OFFSET 0.000000 -2.449906 4.627600 
				}
			}
		}
	}
}
MOTION
Frames: 20
Frame Time: 0.016667
0.571142 42.682899 0.108341 3.007840 -0.224300 -6.066510 -23.462601 1.094940 2.087260 17.098700 1.315960 1.150980 23.032600 1.714640 -2.545050 14.937800 4.571000 -0.776005 2.000000 -2.000000 0.000000 91.089996 166.576004 2.546400 38.135201 -0.322384 0.084483 0.048820 -0.036407 -150.037003 -2.000000 2.000000 0.000000 -91.828003 -160.854004 -2.030470 -42.930099 0.314951 0.093122 -0.055189 -0.006151 -131.227997 -7.037368 0.651581 -4.599025 22.232401 3.392639 1.562546 -23.644102 20.917761 8.206157 -0.550931 -2.022075 11.795017 3.596611 -4.217244 -0.115171 -16.315304 -11.376128 -4.172298 
0.570354 42.681480 0.104926 3.007840 -0.234052 -6.067030 -23.452900 1.103920 2.083420 17.118200 1.335480 1.150260 23.031700 1.688340 -2.546780 14.937700 4.561410 -0.768083 2.000000 -2.000000 0.000000 91.070503 166.585999 2.526890 38.154701 -0.322355 0.084519 0.048820 -0.036407 -150.037003 -2.000000 2.000000 0.000000 -91.847504 -160.854004 -2.010930 -42.959400 0.314903 0.093173 -0.055178 -0.006042 -131.266998 -7.034604 0.672576 -4.579717 22.232903 3.389177 1.561885 -23.627054 20.871000 8.193407 -0.551016 -2.012000 11.795507 3.596583 -4.217267 -0.115173 -16.319759 -11.350337 -4.170532 
0.572361 42.680447 0.098845 2.998070 -0.224302 -6.046940 -23.452900 1.082580 2.082050 17.108500 1.315970 1.141440 23.011801 1.707750 -2.531260 14.928100 4.571170 -0.767017 2.000000 -2.000000 0.000000 91.070503 166.576004 2.487800 38.164501 -0.322341 0.084538 0.048820 -0.036407 -150.037003 -2.000000 2.000000 0.000000 -91.828003 -160.845001 -2.010960 -42.988701 0.314855 0.093224 -0.055176 -0.006015 -131.276993 -7.034365 0.663589 -4.569927 22.233076 3.387965 1.561667 -23.592525 20.879385 8.189001 -0.541305 -2.019067 11.776088 3.599587 -4.227543 -0.115087 -16.357025 -11.312633 -4.163559 
0.574368 42.679283 0.092766 2.988300 -0.214552 -6.026860 -23.462900 1.066750 2.067600 17.108500 1.286730 1.143200 23.001699 1.726780 -2.514830 14.918300 4.571340 -0.758030 2.000000 -2.000000 0.000000 91.080299 166.565994 2.448720 38.174198 -0.322327 0.084556 0.048820 -0.036407 -150.037003 -2.000000 2.000000 0.000000 -91.798698 -160.835007 -2.001220 -43.008202 0.314824 0.093258 -0.055173 -0.005988 -131.287003 -7.025057 0.655982 -4.570540 22.225029 3.375271 1.559335 -23.559729 20.893831 8.169374 -0.531606 -2.026113 11.756671 3.599847 -4.227318 -0.115065 -16.381664 -11.255618 -4.157747 
0.575534 42.678898 0.088022 2.968770 -0.195050 -6.025770 -23.462400 1.046720 2.097550 17.098801 1.267220 1.144160 22.992901 1.753490 -2.514040 14.918400 4.580930 -0.756190 2.000000 -2.000000 0.000000 91.099800 166.565994 2.478010 38.164501 -0.322341 0.084538 0.048813 -0.036380 -150.026993 -2.000000 2.000000 0.000000 -91.759598 -160.835007 -2.030510 -42.998501 0.314840 0.093241 -0.055170 -0.005960 -131.296997 -7.057653 0.607852 -4.577956 22.242277 3.389862 1.552172 -23.566164 20.882999 8.176311 -0.521620 -2.053739 11.755895 3.600326 -4.226913 -0.115024 -16.392290 -11.257423 -4.159886 
0.576700 42.678516 0.083276 2.949230 -0.165796 -6.024190 -23.462099 1.032230 2.114470 17.089001 1.237960 1.155480 22.974501 1.789580 -2.510380 14.908800 4.590690 -0.755131 2.000000 -2.000000 0.000000 91.129097 166.565994 2.507310 38.144901 -0.322370 0.084501 0.048807 -0.036354 -150.016998 -2.000000 2.000000 0.000000 -91.720596 -160.835007 -2.059810 -42.988701 0.314855 0.093224 -0.055168 -0.005933 -131.307007 -7.010611 0.588694 -4.590941 22.222723 3.385731 1.541841 -23.607224 20.896170 8.193795 -0.521289 -2.083979 11.754419 3.619355 -4.223510 -0.114991 -16.408550 -11.247790 -4.168134 
0.574502 42.678001 0.080121 2.949230 -0.175548 -6.024700 -23.461700 1.033560 2.145780 17.089100 1.218470 1.166420 22.947201 1.843410 -2.509800 14.879700 4.610380 -0.753808 2.000000 -2.000000 0.000000 91.168198 166.576004 2.556160 38.115601 -0.322413 0.084446 0.048776 -0.036221 -149.968994 -2.000000 2.000000 0.000000 -91.681503 -160.835007 -2.108640 -42.978901 0.314871 0.093207 -0.055178 -0.006042 -131.266998 -7.016442 0.605742 -4.551489 22.244463 3.377481 1.559538 -23.566187 20.868757 8.166993 -0.501701 -2.078428 11.755873 3.600283 -4.226947 -0.115027 -16.396587 -11.267803 -4.167243 
0.572304 42.677483 0.076966 2.939470 -0.185303 -6.025170 -23.461100 1.025920 2.180990 17.098900 1.189240 1.187930 22.910200 1.897660 -2.509910 14.860500 4.629910 -0.761483 2.000000 -2.000000 0.000000 91.207298 166.576004 2.614760 38.086300 -0.322456 0.084391 0.048745 -0.036087 -149.919998 -2.000000 2.000000 0.000000 -91.632698 -160.824997 -2.147720 -42.969200 0.314887 0.093190 -0.055192 -0.006178 -131.218994 -7.040561 0.615619 -4.491105 22.260069 3.400645 1.544297 -23.517538 20.867685 8.143304 -0.512029 -2.061451 11.765891 3.619175 -4.223665 -0.115006 -16.412352 -11.275043 -4.183077 
0.572679 42.676449 0.073222 2.910170 -0.175555 -6.034350 -23.451401 1.013550 2.175760 17.118401 1.189260 1.178570 22.909800 1.870680 -2.521630 14.860200 4.610730 -0.765144 2.000000 -2.000000 0.000000 91.226799 166.576004 2.624520 38.086300 -0.322456 0.084391 0.048745 -0.036087 -149.919998 -2.000000 2.000000 0.000000 -91.642502 -160.835007 -2.089110 -42.969200 0.314887 0.093190 -0.055192 -0.006178 -131.218994 -6.989080 0.623564 -4.465345 22.251087 3.397257 1.553453 -23.528326 20.838007 8.137399 -0.492292 -2.076184 11.776166 3.618874 -4.223919 -0.115032 -16.423679 -11.275897 -4.184625 
0.573054 42.675415 0.069477 2.880870 -0.175559 -6.044020 -23.431999 1.010150 2.166680 17.137899 1.179540 1.179560 22.909300 1.834700 -2.536830 14.859800 4.591540 -0.768805 2.000000 -2.000000 0.000000 91.246300 166.576004 2.634290 38.096100 -0.322442 0.084409 0.048745 -0.036087 -149.919998 -2.000000 2.000000 0.000000 -91.652199 -160.854004 -2.030470 -42.978901 0.314871 0.093207 -0.055189 -0.006151 -131.227997 -6.978238 0.614921 -4.446538 22.262409 3.387229 1.551456 -23.503845 20.831650 8.137110 -0.462810 -2.087367 11.767544 3.619143 -4.223691 -0.115009 -16.422903 -11.276950 -4.185271 
0.573840 42.676708 0.060439 2.880870 -0.156053 -6.043040 -23.422199 1.001200 2.170590 17.138000 1.169790 1.180140 22.899300 1.817100 -2.545370 14.859700 4.581950 -0.770636 2.000000 -2.000000 0.000000 91.246300 166.595001 2.653860 38.105900 -0.322427 0.084428 0.048752 -0.036114 -149.929993 -2.000000 2.000000 0.000000 -91.671799 -160.873993 -1.962060 -42.978901 0.314871 0.093207 -0.055173 -0.005988 -131.287003 -7.006956 0.594963 -4.424982 22.281395 3.395289 1.562568 -23.492842 20.810976 8.132624 -0.473233 -2.090957 11.776522 3.618662 -4.224103 -0.115051 -16.375010 -11.300743 -4.170458 
0.574627 42.678001 0.051400 2.871100 -0.146301 -6.052280 -23.422199 1.001200 2.170590 17.147699 1.169800 1.180340 22.899099 1.799110 -2.552970 14.849700 4.572530 -0.773245 2.000000 -2.000000 0.000000 91.256104 166.615005 2.683210 38.105900 -0.322427 0.084428 0.048758 -0.036141 -149.938995 -2.000000 2.000000 0.000000 -91.701103 -160.893005 -1.883890 -42.988701 0.314855 0.093224 -0.055157 -0.005824 -131.345993 -6.955662 0.599789 -4.399212 22.234484 3.375428 1.549562 -23.444929 20.809082 8.108565 -0.472823 -2.111399 11.785359 3.619045 -4.223775 -0.115017 -16.329367 -11.321379 -4.155600 
0.574819 42.676968 0.045547 2.851570 -0.136549 -6.041980 -23.412399 1.001210 2.170610 17.137899 1.189290 1.178970 22.919600 1.824640 -2.549410 14.859800 4.591540 -0.778570 2.000000 -2.000000 0.000000 91.226799 166.634003 2.673490 38.086300 -0.322456 0.084391 0.048739 -0.036061 -149.910004 -2.000000 2.000000 0.000000 -91.740097 -160.882996 -1.864380 -43.008202 0.314824 0.093258 -0.055157 -0.005824 -131.345993 -6.964776 0.581454 -4.379010 22.262238 3.391212 1.561966 -23.445606 20.812384 8.099103 -0.452964 -2.125434 11.776026 3.606103 -4.221987 -0.115243 -16.336798 -11.319897 -4.176319 
0.575011 42.675934 0.039693 2.841800 -0.126797 -6.031710 -23.412600 1.006740 2.157590 17.137899 1.199030 1.168630 22.939400 1.850830 -2.536120 14.870000 4.610550 -0.774124 2.000000 -2.000000 0.000000 91.207298 166.643997 2.673510 38.066799 -0.322485 0.084354 0.048727 -0.036007 -149.889999 -2.000000 2.000000 0.000000 -91.769402 -160.882996 -1.844850 -43.018002 0.314808 0.093275 -0.055160 -0.005851 -131.335999 -6.963274 0.580573 -4.359578 22.273226 3.389031 1.580886 -23.429386 20.787025 8.081038 -0.443330 -2.132483 11.766403 3.606140 -4.221957 -0.115240 -16.369884 -11.323784 -4.183667 
0.575503 42.674641 0.035183 2.783210 -0.146312 -6.022760 -23.383499 1.012320 2.144660 17.157400 1.208810 1.168460 22.937599 1.807180 -2.535690 14.869800 4.600960 -0.766191 2.000000 -2.000000 0.000000 91.187798 166.673004 2.673580 38.056999 -0.322499 0.084336 0.048715 -0.035954 -149.871002 -2.000000 2.000000 0.000000 -91.828003 -160.882996 -1.786260 -43.047298 0.314760 0.093327 -0.055170 -0.005960 -131.296997 -6.952837 0.579374 -4.350389 22.311691 3.393419 1.571657 -23.426868 20.789673 8.079754 -0.385069 -2.122971 11.760489 3.607336 -4.221429 -0.124925 -16.354151 -11.332610 -4.174904 
0.575997 42.673363 0.030675 2.724620 -0.156073 -6.023080 -23.354401 1.017900 2.131740 17.167200 1.218570 1.158320 22.935301 1.773180 -2.521730 14.869600 4.591370 -0.768023 2.000000 -2.000000 0.000000 91.168297 166.703003 2.673640 38.047298 -0.322513 0.084318 0.048703 -0.035901 -149.850998 -2.000000 2.000000 0.000000 -91.886597 -160.882996 -1.717900 -43.076599 0.314712 0.093378 -0.055181 -0.006069 -131.257996 -6.902037 0.590019 -4.334365 22.358305 3.407027 1.554296 -23.464752 20.785759 8.063834 -0.336702 -2.115276 11.753882 3.615890 -4.226474 -0.115289 -16.342907 -11.327799 -4.182189 
0.577915 42.673618 0.025905 2.695320 -0.165832 -6.023460 -23.335100 1.023470 2.118790 17.177000 1.218580 1.158530 22.962900 1.737340 -2.514720 14.879100 4.572020 -0.761144 2.000000 -2.000000 0.000000 91.187798 166.682999 2.722430 38.105900 -0.322427 0.084428 0.048752 -0.036114 -149.929993 -2.000000 2.000000 0.000000 -91.915901 -160.912003 -1.698290 -43.066799 0.314728 0.093360 -0.055195 -0.006205 -131.209000 -6.893597 0.594100 -4.354537 22.348831 3.407002 1.564123 -23.456038 20.787079 8.084853 -0.306421 -2.113449 11.755823 3.606173 -4.221927 -0.115237 -16.342785 -11.351645 -4.173399 
0.579835 42.674000 0.021136 2.675800 -0.185345 -6.034080 -23.315599 1.023490 2.118860 17.186701 1.218590 1.148970 22.980101 1.702570 -2.498940 14.888700 4.562260 -0.752435 2.000000 -2.000000 0.000000 91.207298 166.662994 2.780980 38.164501 -0.322341 0.084538 0.048807 -0.036354 -150.016998 -2.000000 2.000000 0.000000 -91.955002 -160.951004 -1.688430 -43.057098 0.314744 0.093343 -0.055211 -0.006368 -131.149994 -6.874137 0.593402 -4.355873 22.358900 3.405686 1.563727 -23.443909 20.799963 8.091365 -0.286704 -2.105112 11.757432 3.605966 -4.221117 -0.095676 -16.332407 -11.381586 -4.188931 
0.585204 42.672844 0.013974 2.656260 -0.175592 -6.023800 -23.315800 1.016640 2.100570 17.177000 1.208830 1.149340 22.978901 1.703880 -2.479490 14.888900 4.571850 -0.740834 2.000000 -2.000000 0.000000 91.217102 166.643997 2.829760 38.213299 -0.322269 0.084629 0.048844 -0.036514 -150.076004 -2.000000 2.000000 0.000000 -92.003899 -160.990005 -1.629750 -43.047298 0.314760 0.093327 -0.055197 -0.006232 -131.199005 -6.854228 0.586258 -4.347473 22.388414 3.406465 1.563592 -23.502607 20.765839 8.082895 -0.277372 -2.111780 11.757614 3.605936 -4.221140 -0.095679 -16.331964 -11.369927 -4.171448 
0.590572 42.671677 0.006813 2.636730 -0.165840 -6.023290 -23.316099 1.009790 2.082280 17.167200 1.208820 1.139370 22.986799 1.705470 -2.449690 14.889000 4.581440 -0.729233 2.000000 -2.000000 0.000000 91.236603 166.613998 2.878520 38.271900 -0.322182 0.084739 0.048888 -0.036700 -150.143997 -2.000000 2.000000 0.000000 -92.062500 -161.029007 -1.571060 -43.037498 0.314776 0.093309 -0.055184 -0.006096 -131.248001 -6.845093 0.573782 -4.348096 22.348955 3.406160 1.563962 -23.482077 20.759317 8.074037 -0.084535 -2.136413 11.777398 3.569632 -4.240584 -0.125125 -16.468325 -11.376327 -4.202793 
